<?xml version="1.0" encoding="utf-8"?>
<!-- Generator: Adobe Illustrator 18.0.0, SVG Export Plug-In . SVG Version: 6.00 Build 0)  -->
<!DOCTYPE svg PUBLIC "-//W3C//DTD SVG 1.1//EN" "http://www.w3.org/Graphics/SVG/1.1/DTD/svg11.dtd">
<svg version="1.1" id="Layer_1" xmlns="http://www.w3.org/2000/svg" xmlns:xlink="http://www.w3.org/1999/xlink" x="0px" y="0px"
	 width="256px" height="256px" viewBox="0 0 256 256" enable-background="new 0 0 256 256" xml:space="preserve">
<g>
	<rect fill="#292623" width="256" height="256"/>
	<g>
		<g id="L_copy_2_3_">
			<g>
				<path fill="#EF554F" d="M89.6,97.4l-8.3,60.7c-0.1,1,0.6,1.9,1.6,1.9H91c0.8,0,1.5-0.6,1.6-1.4l8.4-60.7c0.1-1-0.6-1.9-1.6-1.9
					h-8.2C90.4,96,89.7,96.6,89.6,97.4z"/>
			</g>
		</g>
		<g id="L_copy_4_3_">
			<g>
				<path fill="#F2CA00" d="M117,147.2l6.9-49.4c0.1-1-0.6-1.9-1.6-1.9h-8.1c-0.8,0-1.5,0.6-1.6,1.4l-8.3,60.7
					c-0.1,1,0.6,1.9,1.6,1.9h36.3c0.8,0,1.5-0.6,1.6-1.4l1.1-8.1c0.1-1-0.6-1.9-1.6-1.9h-25C117.4,148.6,116.9,148,117,147.2z"/>
			</g>
		</g>
		<g id="L_copy_3_3_">
			<g>
				<path fill="#00D99F" d="M135.1,97.4l-1.1,8.1c-0.1,1,0.6,1.9,1.6,1.9h25c0.7,0,1.3,0.6,1.2,1.4l-6.9,49.4
					c-0.1,1,0.6,1.9,1.6,1.9h8.1c0.8,0,1.5-0.6,1.6-1.4l8.3-60.7c0.1-1-0.6-1.9-1.6-1.9h-36.4C135.9,96,135.2,96.6,135.1,97.4z"/>
			</g>
		</g>
	</g>
</g>
</svg>
